<svg width="16" height="15" viewBox="0 0 16 15" fill="none" xmlns="http://www.w3.org/2000/svg">
<path d="M1.84766 13.4375L7.91797 13.4375C8.24609 13.9479 8.65625 14.3763 9.14844 14.7227C9.05729 14.7409 8.96615 14.75 8.875 14.75L1.875 14.75C1.38281 14.7318 0.972656 14.5586 0.644531 14.2305C0.316406 13.9023 0.143229 13.4922 0.125 13L0.125 2.5C0.143229 2.00781 0.316406 1.59766 0.644531 1.26953C0.972656 0.941406 1.38281 0.768229 1.875 0.75L6.41406 0.75C6.88802 0.75 7.29818 0.923177 7.64453 1.26953L10.1055 3.73047C10.4518 4.07682 10.625 4.49609 10.625 4.98828V6.19141C10.151 6.31901 9.71354 6.51953 9.3125 6.79297L9.3125 5.125L7.125 5.125C6.86979 5.125 6.66016 5.04297 6.49609 4.87891C6.33203 4.71484 6.25 4.50521 6.25 4.25L6.25 2.0625L1.875 2.0625C1.60156 2.08073 1.45573 2.22656 1.4375 2.5L1.4375 13C1.45573 13.2734 1.60156 13.4193 1.875 13.4375H1.84766ZM7.97266 10.8125C8.00911 9.70052 8.40104 8.77083 9.14844 8.02344C9.89583 7.29427 10.8255 6.91146 11.9375 6.875C13.0495 6.91146 13.9792 7.29427 14.7266 8.02344C15.4557 8.77083 15.8385 9.70052 15.875 10.8125C15.8385 11.9245 15.4557 12.8542 14.7266 13.6016C13.9792 14.3307 13.0495 14.7135 11.9375 14.75C10.8255 14.7135 9.89583 14.3307 9.14844 13.6016C8.40104 12.8542 8.00911 11.9245 7.97266 10.8125ZM11.9375 9.5C12.3385 9.46354 12.5573 9.24479 12.5938 8.84375C12.5573 8.44271 12.3385 8.22396 11.9375 8.1875C11.5365 8.22396 11.3177 8.44271 11.2813 8.84375C11.3177 9.24479 11.5365 9.46354 11.9375 9.5ZM11.5 11.25V12.5625C11.2266 12.5807 11.0807 12.7266 11.0625 13C11.0807 13.2734 11.2266 13.4193 11.5 13.4375H12.375C12.6484 13.4193 12.7943 13.2734 12.8125 13C12.7943 12.7266 12.6484 12.5807 12.375 12.5625V10.8125C12.3568 10.5391 12.2109 10.3932 11.9375 10.375H11.5C11.2266 10.3932 11.0807 10.5391 11.0625 10.8125C11.0807 11.0859 11.2266 11.2318 11.5 11.25Z" fill="white"/>
</svg>
