<svg width="24" height="24" viewBox="0 0 24 24" fill="none" xmlns="http://www.w3.org/2000/svg">
<path d="M4.78125 10.875C5.18229 10.8385 5.40104 10.6198 5.4375 10.2188L5.4375 6.28125C5.45573 6.15365 5.52865 6.08073 5.65625 6.0625L18.3438 6.0625C18.4714 6.08073 18.5443 6.15365 18.5625 6.28125V10.2187C18.599 10.6198 18.8177 10.8385 19.2188 10.875C19.6198 10.8385 19.8385 10.6198 19.875 10.2187V6.28125C19.8568 5.84375 19.7109 5.47917 19.4375 5.1875C19.1458 4.91406 18.7812 4.76823 18.3438 4.75L5.65625 4.75C5.21875 4.76823 4.85417 4.91406 4.5625 5.1875C4.28906 5.47917 4.14323 5.84375 4.125 6.28125L4.125 10.2188C4.16146 10.6198 4.38021 10.8385 4.78125 10.875ZM18.125 11.75C17.6328 11.7682 17.2227 11.9414 16.8945 12.2695C16.5664 12.5977 16.3932 13.0078 16.375 13.5C16.3932 13.9922 16.5664 14.4023 16.8945 14.7305C17.2227 15.0586 17.6328 15.2227 18.125 15.2227C18.6172 15.2227 19.0273 15.0586 19.3555 14.7305C19.6836 14.4023 19.8568 13.9922 19.875 13.5C19.8568 13.0078 19.6836 12.5977 19.3555 12.2695C19.0273 11.9414 18.6172 11.7682 18.125 11.75ZM18.125 13.9102C17.8698 13.9102 17.724 13.7734 17.6875 13.5C17.724 13.2448 17.8698 13.099 18.125 13.0625C18.3802 13.099 18.526 13.2448 18.5625 13.5C18.526 13.7734 18.3802 13.9102 18.125 13.9102ZM12.6563 16.125H11.3438C10.7969 16.1432 10.332 16.3438 9.94922 16.7266C9.58464 17.1094 9.39323 17.5924 9.375 18.1758C9.41146 18.5221 9.60286 18.7135 9.94922 18.75H14.0508C14.3971 18.7135 14.5885 18.5221 14.625 18.1758C14.6068 17.5924 14.4154 17.1094 14.0508 16.7266C13.668 16.3438 13.2031 16.1432 12.6563 16.125ZM18.7812 16.125H17.4688C16.9219 16.1432 16.457 16.3438 16.0742 16.7266C15.7096 17.1094 15.5182 17.5924 15.5 18.1758C15.5365 18.5221 15.7279 18.7135 16.0742 18.75H20.1758C20.5221 18.7135 20.7135 18.5221 20.75 18.1758C20.7318 17.5924 20.5404 17.1094 20.1758 16.7266C19.793 16.3438 19.3281 16.1432 18.7812 16.125ZM10.25 13.5C10.2682 13.9922 10.4414 14.4023 10.7695 14.7305C11.0977 15.0586 11.5078 15.2318 12 15.25C12.4922 15.2318 12.9023 15.0586 13.2305 14.7305C13.5586 14.4023 13.7318 13.9922 13.75 13.5C13.7318 13.0078 13.5586 12.5977 13.2305 12.2695C12.9023 11.9414 12.4922 11.7682 12 11.75C11.5078 11.7682 11.0977 11.9414 10.7695 12.2695C10.4414 12.5977 10.2682 13.0078 10.25 13.5ZM12.4375 13.5C12.401 13.7734 12.2552 13.9193 12 13.9375C11.7448 13.9193 11.599 13.7734 11.5625 13.5C11.599 13.2448 11.7448 13.099 12 13.0625C12.2552 13.099 12.401 13.2448 12.4375 13.5ZM6.53125 16.125H5.21875C4.67188 16.1432 4.20703 16.3438 3.82422 16.7266C3.45964 17.1094 3.26823 17.5924 3.25 18.1758C3.28646 18.5221 3.47786 18.7135 3.82422 18.75H7.92578C8.27214 18.7135 8.46354 18.5221 8.5 18.1758C8.48177 17.5924 8.29036 17.1094 7.92578 16.7266C7.54297 16.3438 7.07813 16.1432 6.53125 16.125ZM4.125 13.5C4.14323 13.9922 4.31641 14.4023 4.64453 14.7305C4.97266 15.0586 5.38281 15.2318 5.875 15.25C6.36719 15.2318 6.77734 15.0586 7.10547 14.7305C7.43359 14.4023 7.60677 13.9922 7.625 13.5C7.60677 13.0078 7.43359 12.5977 7.10547 12.2695C6.77734 11.9414 6.36719 11.7682 5.875 11.75C5.38281 11.7682 4.97266 11.9414 4.64453 12.2695C4.31641 12.5977 4.14323 13.0078 4.125 13.5ZM6.3125 13.5C6.27604 13.7734 6.13021 13.9193 5.875 13.9375C5.61979 13.9193 5.47396 13.7734 5.4375 13.5C5.47396 13.2448 5.61979 13.099 5.875 13.0625C6.13021 13.099 6.27604 13.2448 6.3125 13.5Z" fill="white"/>
</svg>
