<svg width="25" height="25" viewBox="0 0 25 25" fill="none" xmlns="http://www.w3.org/2000/svg">
<path d="M14.1719 13.6434L16.6562 13.9716C16.8438 14.0341 16.9688 14.1434 17.0312 14.2997C17.0938 14.4872 17.0469 14.6591 16.8906 14.8153L15.1094 16.5497L15.5312 19.0341C15.5625 19.2216 15.5 19.3778 15.3438 19.5028C15.1875 19.6278 15.0156 19.6434 14.8281 19.5497L12.625 18.3778L10.4219 19.5497C10.2344 19.6434 10.0625 19.6278 9.90625 19.5028C9.75 19.3778 9.6875 19.2216 9.71875 19.0341L10.1406 16.5497L8.35938 14.8153C8.20312 14.6591 8.15625 14.4872 8.21875 14.2997C8.28125 14.1434 8.40625 14.0341 8.59375 13.9716L11.0781 13.6434L12.2031 11.3934C12.2969 11.2059 12.4375 11.1122 12.625 11.1122C12.8125 11.1122 12.9531 11.2059 13.0469 11.3934L14.1719 13.6434ZM8.125 0.00280762C8.8125 0.0653076 9.1875 0.440308 9.25 1.12781V3.00281H16V1.12781C16.0625 0.440308 16.4375 0.0653076 17.125 0.00280762C17.8125 0.0653076 18.1875 0.440308 18.25 1.12781V3.00281H20.125C20.9688 3.03406 21.6719 3.33093 22.2344 3.89343C22.7969 4.45593 23.0938 5.15906 23.125 6.00281V21.0028C23.0938 21.8466 22.7969 22.5497 22.2344 23.1122C21.6719 23.6747 20.9688 23.9716 20.125 24.0028H5.125C4.28125 23.9716 3.57812 23.6747 3.01562 23.1122C2.45312 22.5497 2.15625 21.8466 2.125 21.0028V6.00281C2.15625 5.15906 2.45312 4.45593 3.01562 3.89343C3.57812 3.33093 4.28125 3.03406 5.125 3.00281H7V1.12781C7.0625 0.440308 7.4375 0.0653076 8.125 0.00280762ZM20.875 9.00281H4.375V21.0028C4.40625 21.4716 4.65625 21.7216 5.125 21.7528H20.125C20.5938 21.7216 20.8438 21.4716 20.875 21.0028V9.00281Z" fill="#F88125"/>
</svg>
