<svg width="25" height="25" viewBox="0 0 25 25" fill="none" xmlns="http://www.w3.org/2000/svg">
<path d="M14.375 14.2528H9.875C7.53125 14.3153 5.59375 15.1278 4.0625 16.6903C2.5 18.2216 1.6875 20.1591 1.625 22.5028C1.625 22.9403 1.76562 23.2997 2.04688 23.5809C2.32812 23.8622 2.6875 24.0028 3.125 24.0028H21.125C21.5625 24.0028 21.9219 23.8622 22.2031 23.5809C22.4844 23.2997 22.625 22.9403 22.625 22.5028C22.5625 20.1591 21.75 18.2216 20.1875 16.6903C18.6562 15.1278 16.7188 14.3153 14.375 14.2528ZM3.92188 21.7528C4.14062 20.2528 4.79688 19.0028 5.89062 18.0028C6.98438 17.0341 8.3125 16.5341 9.875 16.5028H14.375C15.9375 16.5341 17.2656 17.0341 18.3594 18.0028C19.4531 19.0028 20.1094 20.2528 20.3281 21.7528H3.92188ZM12.125 12.0028C13.8125 11.9716 15.2344 11.3934 16.3906 10.2684C17.5156 9.11218 18.0938 7.69031 18.125 6.00281C18.0938 4.31531 17.5156 2.89343 16.3906 1.73718C15.2344 0.612183 13.8125 0.0340576 12.125 0.00280762C10.4375 0.0340576 9.01562 0.612183 7.85938 1.73718C6.73438 2.89343 6.15625 4.31531 6.125 6.00281C6.15625 7.69031 6.73438 9.11218 7.85938 10.2684C9.01562 11.3934 10.4375 11.9716 12.125 12.0028ZM12.125 2.25281C13.1875 2.28406 14.0781 2.64343 14.7969 3.33093C15.4844 4.04968 15.8438 4.94031 15.875 6.00281C15.8438 7.06531 15.4844 7.95593 14.7969 8.67468C14.0781 9.36218 13.1875 9.72156 12.125 9.75281C11.0625 9.72156 10.1719 9.36218 9.45312 8.67468C8.76562 7.95593 8.40625 7.06531 8.375 6.00281C8.40625 4.94031 8.76562 4.04968 9.45312 3.33093C10.1719 2.64343 11.0625 2.28406 12.125 2.25281Z" fill="#F88125"/>
</svg>
