<svg width="14" height="15" viewBox="0 0 14 15" fill="none" xmlns="http://www.w3.org/2000/svg">
<path d="M7 0.75C8.11198 0.786458 9.04167 1.16927 9.78906 1.89844C10.5182 2.64583 10.901 3.57552 10.9375 4.6875V6H11.375C11.8672 6.01823 12.2773 6.19141 12.6055 6.51953C12.9336 6.84766 13.1068 7.25781 13.125 7.75V13C13.1068 13.4922 12.9336 13.9023 12.6055 14.2305C12.2773 14.5586 11.8672 14.7318 11.375 14.75H2.625C2.13281 14.7318 1.72266 14.5586 1.39453 14.2305C1.06641 13.9023 0.893229 13.4922 0.875 13V7.75C0.893229 7.25781 1.06641 6.84766 1.39453 6.51953C1.72266 6.19141 2.13281 6.01823 2.625 6H3.0625V4.6875C3.09896 3.57552 3.48177 2.64583 4.21094 1.89844C4.95833 1.16927 5.88802 0.786458 7 0.75ZM7 2.5C6.38021 2.51823 5.86068 2.72786 5.44141 3.12891C5.04036 3.54818 4.83073 4.06771 4.8125 4.6875V6H9.1875V4.6875C9.16927 4.06771 8.95964 3.54818 8.55859 3.12891C8.13932 2.72786 7.61979 2.51823 7 2.5ZM7.875 9.5C7.875 9.24479 7.79297 9.03516 7.62891 8.87109C7.46484 8.70703 7.25521 8.625 7 8.625C6.74479 8.625 6.53516 8.70703 6.37109 8.87109C6.20703 9.03516 6.125 9.24479 6.125 9.5V11.25C6.125 11.5052 6.20703 11.7148 6.37109 11.8789C6.53516 12.043 6.74479 12.125 7 12.125C7.25521 12.125 7.46484 12.043 7.62891 11.8789C7.79297 11.7148 7.875 11.5052 7.875 11.25V9.5Z" fill="#1A1A1A"/>
</svg>
