<svg width="19" height="21" viewBox="0 0 19 21" fill="none" xmlns="http://www.w3.org/2000/svg">
<path d="M11.0996 1.75V2.49219C12.5579 2.80469 13.7428 3.52083 14.6543 4.64062C15.5918 5.76042 16.0736 7.08854 16.0996 8.625V9.36719C16.1257 11.2682 16.7637 12.9219 18.0137 14.3281L18.2871 14.6797C18.6257 15.0703 18.6908 15.513 18.4824 16.0078C18.248 16.4766 17.8704 16.724 17.3496 16.75H2.34961C1.82878 16.724 1.45117 16.4766 1.2168 16.0078C1.00846 15.513 1.07357 15.0703 1.41211 14.6797L1.72461 14.3281C2.94857 12.9219 3.57357 11.2682 3.59961 9.36719V8.625C3.62565 7.08854 4.0944 5.76042 5.00586 4.64062C5.94336 3.52083 7.14128 2.80469 8.59961 2.49219V1.75C8.59961 1.38542 8.7168 1.08594 8.95117 0.851562C9.18555 0.617188 9.48503 0.5 9.84961 0.5C10.2142 0.5 10.5137 0.617188 10.748 0.851562C10.9824 1.08594 11.0996 1.38542 11.0996 1.75ZM9.84961 20.5C9.17253 20.5 8.58659 20.2526 8.0918 19.7578C7.59701 19.263 7.34961 18.6771 7.34961 18H12.3496C12.3496 18.6771 12.1022 19.263 11.6074 19.7578C11.1126 20.2526 10.5267 20.5 9.84961 20.5Z" fill="#F88125"/>
</svg>
