<svg width="24" height="21" viewBox="0 0 24 21" fill="none" xmlns="http://www.w3.org/2000/svg">
<path d="M23.2998 10.5C23.2738 10.8385 23.1436 11.125 22.9092 11.3594C22.6748 11.5938 22.3883 11.724 22.0498 11.75H20.7998L20.8389 18C20.8128 18.1042 20.7998 18.2083 20.7998 18.3125V18.9375C20.7998 19.3802 20.6436 19.7448 20.3311 20.0312C20.0446 20.3438 19.68 20.5 19.2373 20.5H18.6123C18.5863 20.5 18.5732 20.5 18.5732 20.5C18.5472 20.474 18.5212 20.474 18.4951 20.5C18.443 20.474 18.404 20.474 18.3779 20.5C18.3519 20.5 18.3389 20.5 18.3389 20.5H16.1123C15.6696 20.5 15.305 20.3438 15.0186 20.0312C14.7061 19.7448 14.5498 19.3802 14.5498 18.9375V15.5C14.5498 15.1354 14.4326 14.8359 14.1982 14.6016C13.9639 14.3672 13.6644 14.25 13.2998 14.25H10.7998C10.4352 14.25 10.1357 14.3672 9.90137 14.6016C9.66699 14.8359 9.5498 15.1354 9.5498 15.5V18.9375C9.5498 19.3802 9.39355 19.7448 9.08105 20.0312C8.7946 20.3438 8.43001 20.5 7.9873 20.5H5.7998C5.74772 20.5 5.69564 20.5 5.64355 20.5C5.59147 20.5 5.53939 20.5 5.4873 20.5H4.8623C4.4196 20.5 4.05501 20.3438 3.76855 20.0312C3.45605 19.7448 3.2998 19.3802 3.2998 18.9375V14.5625C3.2998 14.5365 3.2998 14.4974 3.2998 14.4453V11.75H2.0498C1.68522 11.724 1.38574 11.5938 1.15137 11.3594C0.916992 11.125 0.799805 10.8385 0.799805 10.5C0.799805 10.1354 0.930013 9.82292 1.19043 9.5625L11.1904 0.8125C11.4769 0.578125 11.7633 0.473958 12.0498 0.5C12.3623 0.5 12.6488 0.591146 12.9092 0.773438L22.8701 9.5625C23.1826 9.82292 23.3258 10.1354 23.2998 10.5Z" fill="#F88125"/>
</svg>
