<svg width="26" height="21" viewBox="0 0 26 21" fill="none" xmlns="http://www.w3.org/2000/svg">
<path d="M16.4497 2.96094V10.5C16.4237 11.2031 16.1763 11.7891 15.7075 12.2578C15.2388 12.7266 14.6528 12.974 13.9497 13H8.94971L4.69189 15.4219C4.61377 15.474 4.52262 15.5 4.41846 15.5C4.132 15.474 3.97575 15.3177 3.94971 15.0312V13H2.69971C1.99658 12.974 1.41064 12.7266 0.941895 12.2578C0.473145 11.7891 0.225749 11.2031 0.199707 10.5V2.96094C0.225749 2.28385 0.473145 1.71094 0.941895 1.24219C1.41064 0.773438 1.99658 0.526042 2.69971 0.5H13.9497C14.6528 0.526042 15.2388 0.773438 15.7075 1.24219C16.1763 1.71094 16.4237 2.28385 16.4497 2.96094ZM5.82471 12.6094L8.44189 11.125H13.9497C14.3403 11.099 14.5487 10.8906 14.5747 10.5V3C14.5487 2.60938 14.3403 2.40104 13.9497 2.375H2.69971C2.30908 2.40104 2.10075 2.60938 2.07471 3V10.5C2.10075 10.8906 2.30908 11.099 2.69971 11.125H5.82471V12.6094ZM10.1997 15.5V14.25H12.0747V15.5C12.1007 15.8906 12.3091 16.099 12.6997 16.125H16.9575L19.5747 17.6094V16.125H22.6997C23.0903 16.099 23.2987 15.8906 23.3247 15.5V8C23.2987 7.60938 23.0903 7.40104 22.6997 7.375H17.6997V5.5H22.6997C23.4028 5.52604 23.9888 5.77344 24.4575 6.24219C24.9263 6.71094 25.1737 7.28385 25.1997 7.96094V15.5C25.1737 16.2031 24.9263 16.7891 24.4575 17.2578C23.9888 17.7266 23.4028 17.974 22.6997 18H21.4497V20.0312C21.4237 20.3177 21.2674 20.474 20.981 20.5C20.8768 20.5 20.7856 20.474 20.7075 20.4219L16.4497 18H12.6997C11.9966 17.974 11.4106 17.7266 10.9419 17.2578C10.4731 16.7891 10.2257 16.2031 10.1997 15.5Z" fill="#B1B1B1"/>
</svg>
