<svg width="18" height="21" viewBox="0 0 18 21" fill="none" xmlns="http://www.w3.org/2000/svg">
<path d="M18 13.625V2.375C17.974 1.85417 17.7917 1.41146 17.4531 1.04688C17.0885 0.708333 16.6458 0.526042 16.125 0.5H4.25C3.18229 0.526042 2.29688 0.890625 1.59375 1.59375C0.890625 2.29688 0.526042 3.18229 0.5 4.25V16.75C0.526042 17.8177 0.890625 18.7031 1.59375 19.4062C2.29688 20.1094 3.18229 20.474 4.25 20.5H16.75C17.1146 20.5 17.4141 20.3828 17.6484 20.1484C17.8828 19.9141 18 19.6276 18 19.2891C17.974 18.8203 17.7656 18.4688 17.375 18.2344V15.0312C17.7656 14.6667 17.974 14.1979 18 13.625ZM6.08594 5.5H13.5859C14.0026 5.52604 14.224 5.73438 14.25 6.125C14.224 6.51562 14.0156 6.72396 13.625 6.75H6.08594C5.7474 6.72396 5.55208 6.51562 5.5 6.125C5.55208 5.73438 5.7474 5.52604 6.08594 5.5ZM6.08594 8H13.5859C14.0026 8.02604 14.224 8.23438 14.25 8.625C14.224 9.01562 14.0156 9.22396 13.625 9.25H6.08594C5.7474 9.22396 5.55208 9.01562 5.5 8.625C5.55208 8.23438 5.7474 8.02604 6.08594 8ZM15.5 18H4.25C3.88542 18 3.58594 17.8828 3.35156 17.6484C3.11719 17.4141 3 17.1146 3 16.75C3 16.3854 3.11719 16.0859 3.35156 15.8516C3.58594 15.6172 3.88542 15.5 4.25 15.5H15.5V18Z" fill="#F88125"/>
</svg>
