<svg width="19" height="21" viewBox="0 0 19 21" fill="none" xmlns="http://www.w3.org/2000/svg">
<path d="M11.0996 1.75V2.45312C12.5579 2.71354 13.7428 3.3776 14.6543 4.44531C15.5918 5.51302 16.0736 6.80208 16.0996 8.3125V9.60156C16.1257 11.4245 16.6986 13.0521 17.8184 14.4844L18.4043 15.2266C18.6387 15.5391 18.6777 15.8646 18.5215 16.2031C18.3392 16.5417 18.0527 16.724 17.6621 16.75H2.03711C1.64648 16.724 1.36003 16.5417 1.17773 16.2031C1.02148 15.8646 1.06055 15.5391 1.29492 15.2266L1.88086 14.4844C3.00065 13.0521 3.57357 11.4245 3.59961 9.60156V8.3125C3.62565 6.80208 4.10742 5.51302 5.04492 4.44531C5.95638 3.3776 7.14128 2.71354 8.59961 2.45312V1.75C8.59961 1.38542 8.7168 1.08594 8.95117 0.851562C9.18555 0.617188 9.48503 0.5 9.84961 0.5C10.2142 0.5 10.5137 0.617188 10.748 0.851562C10.9824 1.08594 11.0996 1.38542 11.0996 1.75ZM9.53711 4.25C8.39128 4.27604 7.42773 4.66667 6.64648 5.42188C5.89128 6.20312 5.50065 7.16667 5.47461 8.3125V9.60156C5.47461 11.5286 4.95378 13.2865 3.91211 14.875H15.7871C14.7454 13.2865 14.2246 11.5286 14.2246 9.60156V8.3125C14.1986 7.16667 13.8079 6.20312 13.0527 5.42188C12.2715 4.66667 11.3079 4.27604 10.1621 4.25H9.53711ZM12.3496 18C12.3496 18.6771 12.1022 19.263 11.6074 19.7578C11.1126 20.2526 10.5267 20.5 9.84961 20.5C9.17253 20.5 8.58659 20.2526 8.0918 19.7578C7.59701 19.263 7.34961 18.6771 7.34961 18H12.3496Z" fill="#B1B1B1"/>
</svg>
