<svg width="19" height="21" viewBox="0 0 19 21" fill="none" xmlns="http://www.w3.org/2000/svg">
<path d="M7.1499 1.75V3H12.1499V1.75C12.1499 1.38542 12.2671 1.08594 12.5015 0.851562C12.7358 0.617188 13.0353 0.5 13.3999 0.5C13.7645 0.5 14.064 0.617188 14.2983 0.851562C14.5327 1.08594 14.6499 1.38542 14.6499 1.75V3H16.5249C17.0457 3.02604 17.4884 3.20833 17.853 3.54688C18.1916 3.91146 18.3739 4.35417 18.3999 4.875V6.75H0.899902V4.875C0.925944 4.35417 1.10824 3.91146 1.44678 3.54688C1.81136 3.20833 2.25407 3.02604 2.7749 3H4.6499V1.75C4.6499 1.38542 4.76709 1.08594 5.00146 0.851562C5.23584 0.617188 5.53532 0.5 5.8999 0.5C6.26449 0.5 6.56396 0.617188 6.79834 0.851562C7.03271 1.08594 7.1499 1.38542 7.1499 1.75ZM0.899902 8H18.3999V18.625C18.3739 19.1458 18.1916 19.5885 17.853 19.9531C17.4884 20.2917 17.0457 20.474 16.5249 20.5H2.7749C2.25407 20.474 1.81136 20.2917 1.44678 19.9531C1.10824 19.5885 0.925944 19.1458 0.899902 18.625V8ZM3.3999 12.375C3.42594 12.7656 3.63428 12.974 4.0249 13H5.2749C5.66553 12.974 5.87386 12.7656 5.8999 12.375V11.125C5.87386 10.7344 5.66553 10.526 5.2749 10.5H4.0249C3.63428 10.526 3.42594 10.7344 3.3999 11.125V12.375ZM8.3999 12.375C8.42594 12.7656 8.63428 12.974 9.0249 13H10.2749C10.6655 12.974 10.8739 12.7656 10.8999 12.375V11.125C10.8739 10.7344 10.6655 10.526 10.2749 10.5H9.0249C8.63428 10.526 8.42594 10.7344 8.3999 11.125V12.375ZM14.0249 10.5C13.6343 10.526 13.4259 10.7344 13.3999 11.125V12.375C13.4259 12.7656 13.6343 12.974 14.0249 13H15.2749C15.6655 12.974 15.8739 12.7656 15.8999 12.375V11.125C15.8739 10.7344 15.6655 10.526 15.2749 10.5H14.0249ZM3.3999 17.375C3.42594 17.7656 3.63428 17.974 4.0249 18H5.2749C5.66553 17.974 5.87386 17.7656 5.8999 17.375V16.125C5.87386 15.7344 5.66553 15.526 5.2749 15.5H4.0249C3.63428 15.526 3.42594 15.7344 3.3999 16.125V17.375ZM9.0249 15.5C8.63428 15.526 8.42594 15.7344 8.3999 16.125V17.375C8.42594 17.7656 8.63428 17.974 9.0249 18H10.2749C10.6655 17.974 10.8739 17.7656 10.8999 17.375V16.125C10.8739 15.7344 10.6655 15.526 10.2749 15.5H9.0249ZM13.3999 17.375C13.4259 17.7656 13.6343 17.974 14.0249 18H15.2749C15.6655 17.974 15.8739 17.7656 15.8999 17.375V16.125C15.8739 15.7344 15.6655 15.526 15.2749 15.5H14.0249C13.6343 15.526 13.4259 15.7344 13.3999 16.125V17.375Z" fill="#F88125"/>
</svg>
