<svg width="25" height="25" viewBox="0 0 25 25" fill="none" xmlns="http://www.w3.org/2000/svg">
<path d="M2 7.50281C2.6875 7.44031 3.0625 7.06531 3.125 6.37781V2.25281H7.25C7.9375 2.19031 8.3125 1.81531 8.375 1.12781C8.3125 0.440308 7.9375 0.0653076 7.25 0.00280762H2.375C1.9375 0.00280762 1.57812 0.143433 1.29688 0.424683C1.01562 0.705933 0.875 1.06531 0.875 1.50281V6.37781C0.9375 7.06531 1.3125 7.44031 2 7.50281ZM7.25 21.7528H3.125V17.6278C3.0625 16.9403 2.6875 16.5653 2 16.5028C1.3125 16.5653 0.9375 16.9403 0.875 17.6278V22.5028C0.875 22.9403 1.01562 23.2997 1.29688 23.5809C1.57812 23.8622 1.9375 24.0028 2.375 24.0028H7.25C7.9375 23.9403 8.3125 23.5653 8.375 22.8778C8.3125 22.1903 7.9375 21.8153 7.25 21.7528ZM23.75 16.5028C23.0625 16.5653 22.6875 16.9403 22.625 17.6278V21.7528H18.5C17.8125 21.8153 17.4375 22.1903 17.375 22.8778C17.4375 23.5653 17.8125 23.9403 18.5 24.0028H23.375C23.8125 24.0028 24.1719 23.8622 24.4531 23.5809C24.7344 23.2997 24.875 22.9403 24.875 22.5028V17.6278C24.8125 16.9403 24.4375 16.5653 23.75 16.5028ZM23.375 0.00280762H18.5C17.8125 0.0653076 17.4375 0.440308 17.375 1.12781C17.4375 1.81531 17.8125 2.19031 18.5 2.25281H22.625V6.37781C22.6875 7.06531 23.0625 7.44031 23.75 7.50281C24.4375 7.44031 24.8125 7.06531 24.875 6.37781V1.50281C24.875 1.06531 24.7344 0.705933 24.4531 0.424683C24.1719 0.143433 23.8125 0.00280762 23.375 0.00280762ZM20.375 12.0028C20.3125 9.87781 19.5781 8.11218 18.1719 6.70593C16.7656 5.29968 15 4.56531 12.875 4.50281C10.75 4.56531 8.98438 5.29968 7.57812 6.70593C6.17188 8.11218 5.4375 9.87781 5.375 12.0028C5.4375 14.1278 6.17188 15.8934 7.57812 17.2997C8.98438 18.7059 10.75 19.4403 12.875 19.5028C15 19.4403 16.7656 18.7059 18.1719 17.2997C19.5781 15.8934 20.3125 14.1278 20.375 12.0028ZM12.875 17.2528C11.375 17.2216 10.1406 16.7059 9.17188 15.7059C8.17188 14.7372 7.65625 13.5028 7.625 12.0028C7.65625 10.5028 8.17188 9.26843 9.17188 8.29968C10.1406 7.29968 11.375 6.78406 12.875 6.75281C14.375 6.78406 15.6094 7.29968 16.5781 8.29968C17.5781 9.26843 18.0938 10.5028 18.125 12.0028C18.0938 13.5028 17.5781 14.7372 16.5781 15.7059C15.6094 16.7059 14.375 17.2216 12.875 17.2528ZM14.75 11.2528C15.4375 11.1903 15.8125 10.8153 15.875 10.1278C15.8125 9.44031 15.4375 9.06531 14.75 9.00281C14.0625 9.06531 13.6875 9.44031 13.625 10.1278C13.6875 10.8153 14.0625 11.1903 14.75 11.2528ZM11 11.2528C11.6875 11.1903 12.0625 10.8153 12.125 10.1278C12.0625 9.44031 11.6875 9.06531 11 9.00281C10.3125 9.06531 9.9375 9.44031 9.875 10.1278C9.9375 10.8153 10.3125 11.1903 11 11.2528ZM15.8281 12.8466C15.4219 12.6591 15.0938 12.7528 14.8438 13.1278C14.375 13.8466 13.7188 14.2216 12.875 14.2528C12 14.2216 11.3438 13.8466 10.9062 13.1278C10.625 12.7528 10.2969 12.6591 9.92188 12.8466C9.54688 13.1278 9.45312 13.4716 9.64062 13.8778C9.95312 14.4716 10.4062 14.9247 11 15.2372C11.5625 15.5809 12.1875 15.7528 12.875 15.7528C14.2812 15.7216 15.3594 15.0966 16.1094 13.8778C16.2969 13.4716 16.2031 13.1278 15.8281 12.8466Z" fill="#F88125"/>
</svg>
