<svg width="26" height="21" viewBox="0 0 26 21" fill="none" xmlns="http://www.w3.org/2000/svg">
<path d="M16.4497 10.5V2.96094C16.4237 2.28385 16.1763 1.71094 15.7075 1.24219C15.2388 0.773438 14.6528 0.526042 13.9497 0.5H2.69971C1.99658 0.526042 1.41064 0.773438 0.941895 1.24219C0.473145 1.71094 0.225749 2.28385 0.199707 2.96094V10.4609C0.225749 11.1901 0.473145 11.7891 0.941895 12.2578C1.41064 12.7266 1.99658 12.974 2.69971 13H3.94971V15.1094C3.94971 15.2656 4.01481 15.3828 4.14502 15.4609C4.27523 15.5391 4.41846 15.526 4.57471 15.4219L7.77783 13H13.9497C14.6528 12.974 15.2388 12.7266 15.7075 12.2578C16.1763 11.7891 16.4237 11.2031 16.4497 10.5ZM22.6997 5.5H17.6997V10.5C17.6737 11.5677 17.3091 12.4531 16.606 13.1562C15.9028 13.8594 15.0174 14.224 13.9497 14.25H10.1997V15.5C10.2257 16.2031 10.4731 16.7891 10.9419 17.2578C11.4106 17.7005 11.9836 17.9349 12.6606 17.9609H17.5825L20.8247 20.3828C21.1632 20.5651 21.3716 20.474 21.4497 20.1094V18H22.6997C23.4028 17.974 23.9888 17.7266 24.4575 17.2578C24.9263 16.7891 25.1737 16.2161 25.1997 15.5391V7.96094C25.1737 7.28385 24.9263 6.71094 24.4575 6.24219C23.9888 5.77344 23.4028 5.52604 22.6997 5.5Z" fill="#F88125"/>
</svg>
