<svg width="24" height="24" viewBox="0 0 24 24" fill="none" xmlns="http://www.w3.org/2000/svg">
<path d="M17.25 4.75L6.75 4.75C6.25781 4.76823 5.84766 4.94141 5.51953 5.26953C5.19141 5.59766 5.01823 5.9987 5 6.47266L5 14.3203C5.01823 14.8125 5.19141 15.2227 5.51953 15.5508C5.84766 15.8789 6.25781 16.043 6.75 16.043H9.375V18.3398C9.375 18.4857 9.4388 18.5859 9.56641 18.6406C9.67578 18.6953 9.78516 18.6862 9.89453 18.6133L13.3125 16.0977H17.25C17.7422 16.0794 18.1523 15.9062 18.4805 15.5781C18.8086 15.25 18.9818 14.849 19 14.375V6.47266C18.9818 5.9987 18.8086 5.59766 18.4805 5.26953C18.1523 4.94141 17.7422 4.76823 17.25 4.75ZM17.6875 14.375C17.6693 14.6484 17.5234 14.7943 17.25 14.8125H12.875L10.6875 16.4531V14.8125L6.75 14.8125C6.47656 14.7943 6.33073 14.6484 6.3125 14.375L6.3125 6.5C6.33073 6.22656 6.47656 6.08073 6.75 6.0625L17.25 6.0625C17.5234 6.08073 17.6693 6.22656 17.6875 6.5V14.375ZM8.39062 10.0273C8.3724 10.0091 8.34505 10 8.30859 10C8.01693 9.92708 7.86198 9.83594 7.84375 9.72656C7.89844 9.58073 8.09896 9.53516 8.44531 9.58984C8.55469 9.60807 8.67318 9.63542 8.80078 9.67188C9.05599 9.74479 9.23828 9.65365 9.34766 9.39844C9.42057 9.14323 9.32943 8.96094 9.07422 8.85156C8.91016 8.79688 8.74609 8.7513 8.58203 8.71484C8.14453 8.66016 7.78906 8.70573 7.51562 8.85156C7.22396 8.9974 7.05078 9.23438 6.99609 9.5625C6.94141 10 7.05078 10.3099 7.32422 10.4922C7.59766 10.6745 7.83464 10.7839 8.03516 10.8203C8.08984 10.8385 8.13542 10.8477 8.17188 10.8477C8.51823 10.9206 8.70052 11.0208 8.71875 11.1484C8.66406 11.2943 8.46354 11.3398 8.11719 11.2852C7.97135 11.2669 7.81641 11.2214 7.65234 11.1484C7.61589 11.1484 7.57943 11.1393 7.54297 11.1211C7.30599 11.0664 7.13281 11.1576 7.02344 11.3945C6.96875 11.668 7.07813 11.8594 7.35156 11.9688C7.55208 12.0599 7.76172 12.1237 7.98047 12.1602C8.10807 12.1784 8.21745 12.1875 8.30859 12.1875C9.0013 12.1693 9.41146 11.8776 9.53906 11.3125C9.61198 10.875 9.5026 10.5651 9.21094 10.3828C8.9375 10.2005 8.67318 10.082 8.41797 10.0273C8.39974 10.0273 8.39062 10.0273 8.39062 10.0273ZM15.8281 10.0273C15.8099 10.0091 15.7826 10 15.7461 10C15.4544 9.92708 15.2995 9.83594 15.2812 9.72656C15.3359 9.58073 15.5365 9.53516 15.8828 9.58984C15.9922 9.60807 16.1107 9.63542 16.2383 9.67187C16.4935 9.74479 16.6758 9.65365 16.7852 9.39844C16.8581 9.14323 16.7669 8.96094 16.5117 8.85156C16.3477 8.79687 16.1836 8.7513 16.0195 8.71484C15.582 8.66016 15.2266 8.70573 14.9531 8.85156C14.6615 8.9974 14.4883 9.23437 14.4336 9.5625C14.3789 10 14.4883 10.3099 14.7617 10.4922C15.0352 10.6745 15.2721 10.7839 15.4727 10.8203C15.5273 10.8385 15.5729 10.8477 15.6094 10.8477C15.9557 10.9206 16.138 11.0208 16.1562 11.1484C16.1016 11.2943 15.901 11.3398 15.5547 11.2852C15.4089 11.2669 15.2448 11.2214 15.0625 11.1484C15.0443 11.1302 15.0169 11.1211 14.9805 11.1211C14.7435 11.0664 14.5703 11.1576 14.4609 11.3945C14.4063 11.668 14.5156 11.8594 14.7891 11.9687C14.9896 12.0599 15.1992 12.1237 15.418 12.1602C15.5456 12.1784 15.6549 12.1875 15.7461 12.1875C16.4388 12.1693 16.849 11.8776 16.9766 11.3125C17.0495 10.875 16.9401 10.5651 16.6484 10.3828C16.375 10.2005 16.1107 10.082 15.8555 10.0273C15.8372 10.0273 15.8281 10.0273 15.8281 10.0273ZM13.4492 8.71484C13.2487 8.66016 13.0846 8.70573 12.957 8.85156L12 10.1367L11.043 8.85156C10.9154 8.70573 10.7513 8.66016 10.5508 8.71484C10.3685 8.78776 10.2682 8.92448 10.25 9.125V11.75C10.2682 12.0234 10.4141 12.1693 10.6875 12.1875C10.9609 12.1693 11.1068 12.0234 11.125 11.75V10.4375L11.6445 11.1484C11.7357 11.2578 11.8542 11.3125 12 11.3125C12.1458 11.3125 12.2643 11.2578 12.3555 11.1484L12.875 10.4375V11.75C12.8932 12.0234 13.0391 12.1693 13.3125 12.1875C13.5859 12.1693 13.7318 12.0234 13.75 11.75L13.75 9.125C13.7318 8.92448 13.6315 8.78776 13.4492 8.71484Z" fill="white"/>
</svg>
