<svg width="24" height="24" viewBox="0 0 24 24" fill="none" xmlns="http://www.w3.org/2000/svg">
<path d="M13.9141 7.94922C13.6771 7.76693 13.4401 7.76693 13.2031 7.94922L12.7109 8.46875L14.0234 9.78125L14.5156 9.26172C14.7161 9.04297 14.7161 8.8151 14.5156 8.57812L13.9141 7.94922ZM9.75781 11.3945C9.72135 11.4492 9.69401 11.5039 9.67578 11.5586L9.42969 12.8711C9.41146 12.9987 9.47526 13.0625 9.62109 13.0625L10.9062 12.7891C10.9792 12.7891 11.0339 12.7617 11.0703 12.707L13.5586 10.2461L12.2188 8.93359L9.75781 11.3945ZM17.2227 4.75H6.72266C6.23047 4.76823 5.82031 4.94141 5.49219 5.26953C5.16406 5.59766 4.99089 5.9987 4.97266 6.47266V14.3203C4.99089 14.8125 5.16406 15.2227 5.49219 15.5508C5.82031 15.8789 6.23047 16.043 6.72266 16.043H9.34766V18.3125C9.36589 18.4583 9.42969 18.5586 9.53906 18.6133C9.64844 18.668 9.75781 18.6589 9.86719 18.5859L13.2852 16.0156H17.2227C17.7148 16.0156 18.125 15.8516 18.4531 15.5234C18.7812 15.1953 18.9544 14.7852 18.9727 14.293V6.47266C18.9544 5.9987 18.7904 5.59766 18.4805 5.26953C18.1523 4.94141 17.7331 4.76823 17.2227 4.75ZM17.6875 14.375C17.6693 14.6484 17.5234 14.7943 17.25 14.8125H12.875L10.6875 16.4531V14.8125H6.75C6.47656 14.7943 6.33073 14.6484 6.3125 14.375V6.5C6.33073 6.22656 6.47656 6.08073 6.75 6.0625H17.25C17.5234 6.08073 17.6693 6.22656 17.6875 6.5V14.375Z" fill="#5A5A5A"/>
</svg>
