<svg width="18" height="21" viewBox="0 0 18 21" fill="none" xmlns="http://www.w3.org/2000/svg">
<path d="M18 14.25V2.375C17.974 1.85417 17.7917 1.41146 17.4531 1.04688C17.0885 0.708333 16.6458 0.526042 16.125 0.5H3.625C2.73958 0.526042 1.9974 0.825521 1.39844 1.39844C0.825521 1.9974 0.526042 2.73958 0.5 3.625V17.375C0.526042 18.2604 0.825521 19.0026 1.39844 19.6016C1.9974 20.1745 2.73958 20.474 3.625 20.5H17.0625C17.6354 20.4479 17.9479 20.1354 18 19.5625C17.9479 18.9896 17.6354 18.6771 17.0625 18.625H16.75V16.0078C17.5312 15.6953 17.9479 15.1094 18 14.25ZM14.875 18.625H3.625C3.26042 18.625 2.96094 18.5078 2.72656 18.2734C2.49219 18.0391 2.375 17.7396 2.375 17.375C2.375 17.0104 2.49219 16.7109 2.72656 16.4766C2.96094 16.2422 3.26042 16.125 3.625 16.125H14.875V18.625ZM16.125 14.25H3.625C3.18229 14.25 2.76562 14.3411 2.375 14.5234V3.625C2.375 3.26042 2.49219 2.96094 2.72656 2.72656C2.96094 2.49219 3.26042 2.375 3.625 2.375H16.125V14.25ZM6.4375 6.75H13.3125C13.8854 6.69792 14.1979 6.38542 14.25 5.8125C14.1979 5.23958 13.8854 4.92708 13.3125 4.875H6.4375C5.86458 4.92708 5.55208 5.23958 5.5 5.8125C5.55208 6.38542 5.86458 6.69792 6.4375 6.75ZM6.4375 9.875H13.3125C13.8854 9.82292 14.1979 9.51042 14.25 8.9375C14.1979 8.36458 13.8854 8.05208 13.3125 8H6.4375C5.86458 8.05208 5.55208 8.36458 5.5 8.9375C5.55208 9.51042 5.86458 9.82292 6.4375 9.875Z" fill="#B1B1B1"/>
</svg>
