<svg width="14" height="15" viewBox="0 0 14 15" fill="none" xmlns="http://www.w3.org/2000/svg">
<path d="M7 7.75C7.98438 7.73177 8.8138 7.39453 9.48828 6.73828C10.1445 6.0638 10.4818 5.23438 10.5 4.25C10.4818 3.26562 10.1445 2.4362 9.48828 1.76172C8.8138 1.10547 7.98438 0.768229 7 0.75C6.01562 0.768229 5.1862 1.10547 4.51172 1.76172C3.85547 2.4362 3.51823 3.26562 3.5 4.25C3.51823 5.23438 3.85547 6.0638 4.51172 6.73828C5.1862 7.39453 6.01562 7.73177 7 7.75ZM8.39453 9.0625H5.60547C4.27474 9.09896 3.16276 9.5638 2.26953 10.457C1.3763 11.3503 0.911458 12.4622 0.875 13.793C0.875 14.0664 0.966146 14.2943 1.14844 14.4766C1.33073 14.6589 1.55859 14.75 1.83203 14.75H12.168C12.4414 14.75 12.6693 14.6589 12.8516 14.4766C13.0339 14.2943 13.125 14.0664 13.125 13.793C13.0885 12.4622 12.6237 11.3503 11.7305 10.457C10.8372 9.5638 9.72526 9.09896 8.39453 9.0625Z" fill="#1A1A1A"/>
</svg>
