<svg width="14" height="15" viewBox="0 0 14 15" fill="none" xmlns="http://www.w3.org/2000/svg">
<path d="M7 0.75C5.6875 0.768229 4.51172 1.08724 3.47266 1.70703C2.41536 2.32682 1.57682 3.16536 0.957031 4.22266C0.33724 5.26172 0.0182292 6.4375 0 7.75C0.0182292 9.0625 0.33724 10.2383 0.957031 11.2773C1.57682 12.3346 2.41536 13.1732 3.47266 13.793C4.51172 14.4128 5.6875 14.7318 7 14.75C8.3125 14.7318 9.48828 14.4128 10.5273 13.793C11.5846 13.1732 12.4232 12.3346 13.043 11.2773C13.6628 10.2383 13.9818 9.0625 14 7.75C13.9818 6.4375 13.6628 5.26172 13.043 4.22266C12.4232 3.16536 11.5846 2.32682 10.5273 1.70703C9.48828 1.08724 8.3125 0.768229 7 0.75ZM6.34375 4.90625C6.38021 4.50521 6.59896 4.28646 7 4.25C7.40104 4.28646 7.61979 4.50521 7.65625 4.90625V8.40625C7.61979 8.80729 7.40104 9.02604 7 9.0625C6.59896 9.02604 6.38021 8.80729 6.34375 8.40625V4.90625ZM7 11.6875C6.76302 11.6875 6.5625 11.6055 6.39844 11.4414C6.23438 11.2773 6.15234 11.0768 6.15234 10.8398C6.15234 10.5846 6.23438 10.375 6.39844 10.2109C6.5625 10.0469 6.76302 9.96484 7 9.96484C7.23698 9.96484 7.4375 10.0469 7.60156 10.2109C7.76562 10.375 7.84766 10.5846 7.84766 10.8398C7.84766 11.0768 7.76562 11.2773 7.60156 11.4414C7.4375 11.6055 7.23698 11.6875 7 11.6875Z" fill="#FF4559"/>
</svg>
