<svg width="14" height="15" viewBox="0 0 14 15" fill="none" xmlns="http://www.w3.org/2000/svg">
<path d="M12.4688 2.9375C12.8698 2.97396 13.0885 3.19271 13.125 3.59375C13.0885 3.99479 12.8698 4.21354 12.4688 4.25H12.1406L11.4844 13.1367C11.4479 13.5924 11.2656 13.9753 10.9375 14.2852C10.6094 14.5768 10.2174 14.7318 9.76172 14.75H4.23828C3.78255 14.7318 3.39062 14.5768 3.0625 14.2852C2.73438 13.9753 2.55208 13.5924 2.51562 13.1367L1.85938 4.25H1.53125C1.13021 4.21354 0.911458 3.99479 0.875 3.59375C0.911458 3.19271 1.13021 2.97396 1.53125 2.9375H3.44531L4.45703 1.43359C4.76693 0.996094 5.1862 0.768229 5.71484 0.75H8.28516C8.8138 0.768229 9.24219 0.996094 9.57031 1.43359L10.5547 2.9375H12.4688ZM5.71484 2.0625C5.6237 2.0625 5.56901 2.09896 5.55078 2.17188L5.03125 2.9375H8.99609L8.47656 2.17188C8.42188 2.09896 8.35807 2.0625 8.28516 2.0625H5.71484ZM10.8281 4.25H3.17188L3.82812 13.0273C3.86458 13.2826 4.0013 13.4193 4.23828 13.4375H9.76172C9.9987 13.4193 10.1445 13.2826 10.1992 13.0273L10.8281 4.25Z" fill="#FF4559"/>
</svg>
