<svg width="18" height="58" viewBox="0 0 18 58" fill="none" xmlns="http://www.w3.org/2000/svg">
<path d="M17.1094 4.35938L13.6406 0.890625C13.0469 0.296875 12.3281 0 11.4844 0H3C2.15625 0.03125 1.45312 0.328125 0.890625 0.890625C0.328125 1.45312 0.03125 2.15625 0 3V21C0.03125 21.8438 0.328125 22.5469 0.890625 23.1094C1.45312 23.6719 2.15625 23.9688 3 24H15C15.8438 23.9688 16.5469 23.6719 17.1094 23.1094C17.6719 22.5469 17.9688 21.8438 18 21V6.51562C18 5.67188 17.7031 4.95313 17.1094 4.35938ZM15.75 21C15.7188 21.4688 15.4688 21.7188 15 21.75H3C2.53125 21.7188 2.28125 21.4688 2.25 21V3C2.28125 2.5625 2.53125 2.3125 3 2.25H10.5V6C10.5 6.4375 10.6406 6.79688 10.9219 7.07812C11.2031 7.35938 11.5625 7.5 12 7.5H15.7031V21H15.75ZM4.45312 16.9219C4.35938 17.0156 4.29688 17.125 4.26562 17.25L3.75 19.875C3.75 20.125 3.875 20.25 4.125 20.25L6.75 19.7344C6.875 19.7031 6.98438 19.6406 7.07812 19.5469L11.6719 14.9531L9.04688 12.3281L4.45312 16.9219ZM10.0781 11.2969L12.7031 13.9219L13.875 12.75C14.125 12.5 14.25 12.1875 14.25 11.8125C14.25 11.4688 14.125 11.1719 13.875 10.9219L13.0781 10.125C12.8281 9.875 12.5312 9.75 12.1875 9.75C11.8125 9.75 11.5 9.875 11.25 10.125L10.0781 11.2969Z" fill="#F88125"/>
</svg>
