<svg width="26" height="24" viewBox="0 0 26 24" fill="none" xmlns="http://www.w3.org/2000/svg">
<path d="M16.75 12.5V4.96094C16.724 4.28385 16.4766 3.71094 16.0078 3.24219C15.5391 2.77344 14.9531 2.52604 14.25 2.5H3C2.29688 2.52604 1.71094 2.77344 1.24219 3.24219C0.773438 3.71094 0.526042 4.28385 0.5 4.96094V12.4609C0.526042 13.1901 0.773438 13.7891 1.24219 14.2578C1.71094 14.7266 2.29688 14.974 3 15H4.25V17.1094C4.25 17.2656 4.3151 17.3828 4.44531 17.4609C4.57552 17.5391 4.71875 17.526 4.875 17.4219L8.07812 15H14.25C14.9531 14.974 15.5391 14.7266 16.0078 14.2578C16.4766 13.7891 16.724 13.2031 16.75 12.5ZM23 7.5H18V12.5C17.974 13.5677 17.6094 14.4531 16.9062 15.1562C16.2031 15.8594 15.3177 16.224 14.25 16.25H10.5V17.5C10.526 18.2031 10.7734 18.7891 11.2422 19.2578C11.7109 19.7005 12.2839 19.9349 12.9609 19.9609H17.8828L21.125 22.3828C21.4635 22.5651 21.6719 22.474 21.75 22.1094V20H23C23.7031 19.974 24.2891 19.7266 24.7578 19.2578C25.2266 18.7891 25.474 18.2161 25.5 17.5391V9.96094C25.474 9.28385 25.2266 8.71094 24.7578 8.24219C24.2891 7.77344 23.7031 7.52604 23 7.5Z" fill="#F88125"/>
</svg>
